# Blender v3.2.1 OBJ File: 'grass_blade.blend'
# www.blender.org
mtllib grass_blade.mtl
o Plane
v -0.015153 4.619914 0.003821
v 0.015153 4.619914 0.003821
v -0.185116 0.000000 -0.003821
v 0.185116 0.000000 -0.003821
v -0.241843 3.956351 0.654491
v -0.223444 3.953406 0.678392
v -0.109356 0.018546 -0.148256
v 0.115413 -0.017435 0.143731
v 0.668695 3.848574 0.938558
v 0.694705 3.847722 0.923028
v -0.160728 0.006288 0.091704
v 0.157025 -0.004110 -0.098025
v 0.615925 3.921407 -0.618685
v 0.598327 3.920166 -0.643326
v 0.104440 0.008393 0.152658
v -0.110554 -0.006764 -0.148374
v -0.820128 3.826399 -0.908638
v -0.845251 3.824903 -0.891757
v 0.155450 0.010286 -0.100061
v -0.151479 -0.007991 0.106174
vt 0.000000 0.000000
vt 1.000000 0.000000
vt 1.000000 1.000000
vt 0.000000 1.000000
vt 0.000000 0.000000
vt 1.000000 0.000000
vt 1.000000 1.000000
vt 0.000000 1.000000
vt 0.000000 0.000000
vt 1.000000 0.000000
vt 1.000000 1.000000
vt 0.000000 1.000000
vt 0.000000 0.000000
vt 1.000000 0.000000
vt 1.000000 1.000000
vt 0.000000 1.000000
vt 0.000000 0.000000
vt 1.000000 0.000000
vt 1.000000 1.000000
vt 0.000000 1.000000
vn 0.0000 0.0017 -1.0000
vn 0.7925 0.1473 -0.5919
vn -0.4842 0.2867 -0.8266
vn -0.7998 0.2150 0.5604
vn 0.5192 0.3021 0.7995
usemtl None
s off
f 1/1/1 2/2/1 4/3/1 3/4/1
f 5/5/2 6/6/2 8/7/2 7/8/2
f 9/9/3 10/10/3 12/11/3 11/12/3
f 13/13/4 14/14/4 16/15/4 15/16/4
f 17/17/5 18/18/5 20/19/5 19/20/5
